<?xml version='1.0' encoding='utf-8'?>
<svg xmlns="http://www.w3.org/2000/svg" id="svg2172" version="1.1" viewBox="0 0 793.74994 683.68207" height="683.68207mm" width="793.74994mm"> <defs id="defs2166"/> <metadata id="metadata2169"> </metadata> <g transform="translate(499.36368,172.16997)" id="layer1"> <path id="ellipse2252" d="m -102.91035,-160.85545 c -69.42137,0.0299 -136.65202,18.48099 -190.09455,52.16826 -59.51597,-22.97204 -79.68226,-43.95678 -149.66106,-16.77505 -38.34594,120.5595903 30.62137,163.11057 43.02809,211.25582 -57.09764,43.95794 -88.36228,99.2021 -88.42198,156.2404 0.13233,26.87692 7.19849,53.55761 20.91649,78.97661 -4.90118,-13.05952 -6.48689,-26.61513 5.23279,-18.32596 27.35541,19.34797 73.41036,-3.90402 73.41036,-3.90402 0,0 -44.0504,56.65412 -67.42837,41.06569 61.1595,89.60098 199.97074,160.31327 353.43983,160.36202 7.985707,0 15.931355,-0.17066 23.829339,-0.48802 141.968156,-5.69894 268.336331,-73.62981 327.247161,-156.9554 -23.32762,16.03177 -67.62106,-40.93509 -67.62106,-40.93509 0,0 46.05489,23.25204 73.4103,3.9039 14.13978,-10.00086 8.92556,11.78261 1.86713,26.14311 17.70915,-28.6128 26.81327,-59.0895 26.83836,-89.8429 -0.12096,-57.23853 -31.66415,-112.65011 -89.17364,-156.65069 12.40666,-48.14525 81.37391,-90.6963397 43.02809,-211.25581 -65.37783,-29.05207 -120.84659,-3.00962 -150.111645,17.0827 -53.36607,-33.59057 -120.454268,-52.0003 -189.735635,-52.06563 z m 359.15447,492.73233 c -2.41317,3.66834 -4.96609,7.29866 -7.65637,10.88808 0.14131,-0.097 0.28622,-0.18323 0.42633,-0.28622 2.15389,-1.57978 4.79945,-5.65697 7.22998,-10.6021 z m -712.1727,7.96942 c -4.14162,-6.17828 -7.88296,-12.46211 -11.21478,-18.83571 3.04836,8.12253 7.37117,16.05411 10.59569,18.41925 0.20359,0.1497 0.41257,0.27844 0.61909,0.41616 z m 676.7456,-449.10234 c 4.91232,-0.13113 10.25468,0.50717 16.10542,2.07629 -27.45966,251.38884 -80.41849,92.87491 -106.38974,70.32021 35.60542,1.99922 42.79869,-71.12665 90.28432,-72.3965 z m -650.39154,1.45469 c 47.18336,-1.1935 38.13355,77.95742 74.34033,75.58234 -6.9831,22.8098403 -25.05308,86.81513 -49.57857,78.55686 -19.12438,-6.4394 -57.82186,-87.23321 -38.03152,-152.00698 4.86813,-1.35374 9.27124,-2.03108 13.26976,-2.13222 z m 196.7946,157.57078 c 30.33185,4.8e-4 54.92027,33.43219 54.91979,74.6717 -7.2e-4,41.23838 -29.31584,10.8876 -59.64673,10.88808 -30.33095,-3e-4 -50.19226,30.3503 -50.19298,-10.88808 -4.7e-4,-41.23963 24.58806,-74.6714 54.91992,-74.6717 z m 252.827355,3.90384 c 30.33173,4.8e-4 54.92027,33.43225 54.91979,74.67177 4.8e-4,41.23945 -26.95141,7.84145 -57.28332,7.84193 -30.33185,-3e-4 -52.556866,33.3977 -52.556387,-7.84193 -4.79e-4,-41.2397 24.588057,-74.67141 54.919917,-74.67177 z m -469.476075,91.37208 c 1.2914,-0.0683 2.73052,0 4.32688,0.23293 42.11482,6.03253 77.27954,35.43051 77.27954,35.43051 0,0 -60.49659,40.36343 -80.53903,8.68431 -6.80723,-10.75934 -20.43734,-43.33311 -1.06739,-44.34799 z m 335.55404,1.13153 c 35.987503,0.27304 62.988311,11.35735 62.988311,11.35735 11.436749,4.36251 18.477392,19.15767 16.317392,34.28982 -6.810171,47.69581 -35.21579,74.68907 -53.235829,87.32513 l 2.276703,73.41293 c 11.82063,5.15501 29.948211,12.12619 49.619642,16.05393 42.4140363,11.93332 81.467616,-51.13775 101.990586,-53.34325 19.05983,-0.018 30.07898,27.88012 18.86864,47.76693 -31.96822,45.65347 -79.4132497,74.45674 -127.98801,65.01766 -27.935633,-5.57775 -52.408247,-15.97135 -65.016755,-21.91286 -13.26401,6.26982 -39.4128,16.853 -70.16518,19.90495 -44.56799,4.42299 -98.21997,-14.66378 -137.44182,-81.24547 -7.78984,-13.22664 -5.79253,-32.0945 4.45952,-42.14434 10.25187,-10.05008 19.94226,-1.11081 27.73211,12.11583 27.73977,47.09014 66.07241,54.83501 101.6822,51.30116 21.80832,-2.16432 38.04763,-8.05906 49.61485,-13.07323 l -2.29359,-73.9567 c -5.47901,-3.9257 -12.03296,-9.03699 -18.73151,-15.3267 -16.33973,-15.34239 -37.20682,-38.55204 -38.09637,-76.42782 -0.31317,-13.34214 6.22731,-25.35456 16.06195,-29.50002 15.41448,-6.50149 30.88974,-9.76326 45.4373,-11.00616 5.4553,-0.46585 10.77886,-0.6483 15.91986,-0.60914 z m 355.7696,1.92078 c 19.37,1.01488 5.7375,33.58548 -1.06967,44.34482 -20.04244,31.67912 -80.53675,-8.68431 -80.53675,-8.68431 0,0 35.16477,-29.39481 77.27953,-35.42734 1.59648,-0.22874 3.03555,-0.30059 4.32689,-0.23293 z m -714.26864,51.15188 c 2.64275,0.0778 6.00505,2.62597 10.19086,8.55682 35.04705,49.65833 122.88779,46.38087 122.88779,46.38087 0,0 -103.61294,57.71864 -133.03535,14.63642 -8.82706,-12.92503 -12.77713,-69.94997 -0.0419,-69.57411 z m 739.57716,0 c 12.73372,-0.37604 8.78131,56.64908 -0.0479,69.57411 -29.42235,43.08222 -133.03295,-14.63642 -133.03295,-14.63642 0,0 87.84079,3.27746 122.88785,-46.38087 4.18575,-5.93085 7.54799,-8.4788 10.19085,-8.55682 z" style="opacity:1;vector-effect:none;fill:#000000;fill-opacity:1;fill-rule:evenodd;stroke:#000000;stroke-width:22.6076;stroke-linecap:butt;stroke-linejoin:miter;stroke-miterlimit:4;stroke-dasharray:none;stroke-dashoffset:0;stroke-opacity:1"/> </g> </svg>